<?xml version="1.0" encoding="UTF-8" standalone="no"?>
<!DOCTYPE svg PUBLIC "-//W3C//DTD SVG 1.1//EN"
 "http://www.w3.org/Graphics/SVG/1.1/DTD/svg11.dtd">
<!-- Generated by graphviz version 2.43.0 (0)
 -->
<!-- Title: ADXL34x.c Pages: 1 -->
<svg width="580pt" height="140pt"
 viewBox="0.00 0.00 579.50 140.00" xmlns="http://www.w3.org/2000/svg" xmlns:xlink="http://www.w3.org/1999/xlink">
<g id="graph0" class="graph" transform="scale(1 1) rotate(0) translate(4 136)">
<title>ADXL34x.c</title>
<polygon fill="white" stroke="transparent" points="-4,4 -4,-136 575.5,-136 575.5,4 -4,4"/>
<!-- Node1 -->
<g id="node1" class="node">
<title>Node1</title>
<g id="a_node1"><a xlink:title=" ">
<polygon fill="#bfbfbf" stroke="black" points="215,-112.5 215,-131.5 284,-131.5 284,-112.5 215,-112.5"/>
<text text-anchor="middle" x="249.5" y="-119.5" font-family="Helvetica,sans-Serif" font-size="10.00">ADXL34x.c</text>
</a>
</g>
</g>
<!-- Node2 -->
<g id="node2" class="node">
<title>Node2</title>
<g id="a_node2"><a xlink:href="_a_d_x_l34x_8h.html" target="_top" xlink:title=" ">
<polygon fill="white" stroke="black" points="75.5,-56.5 75.5,-75.5 145.5,-75.5 145.5,-56.5 75.5,-56.5"/>
<text text-anchor="middle" x="110.5" y="-63.5" font-family="Helvetica,sans-Serif" font-size="10.00">ADXL34x.h</text>
</a>
</g>
</g>
<!-- Node1&#45;&gt;Node2 -->
<g id="edge1" class="edge">
<title>Node1&#45;&gt;Node2</title>
<path fill="none" stroke="midnightblue" d="M227.48,-112.44C204.4,-103.48 167.94,-89.31 141.86,-79.18"/>
<polygon fill="midnightblue" stroke="midnightblue" points="143.01,-75.88 132.42,-75.52 140.48,-82.4 143.01,-75.88"/>
</g>
<!-- Node3 -->
<g id="node3" class="node">
<title>Node3</title>
<g id="a_node3"><a xlink:title=" ">
<polygon fill="white" stroke="#bfbfbf" points="0,-0.5 0,-19.5 89,-19.5 89,-0.5 0,-0.5"/>
<text text-anchor="middle" x="44.5" y="-7.5" font-family="Helvetica,sans-Serif" font-size="10.00">hardware/i2c.h</text>
</a>
</g>
</g>
<!-- Node1&#45;&gt;Node3 -->
<g id="edge6" class="edge">
<title>Node1&#45;&gt;Node3</title>
<path fill="none" stroke="midnightblue" d="M214.93,-121.91C174.33,-121.07 107.35,-113.51 66.5,-76 53.49,-64.06 48.17,-44.15 46,-29.51"/>
<polygon fill="midnightblue" stroke="midnightblue" points="49.47,-29.1 44.87,-19.56 42.52,-29.89 49.47,-29.1"/>
</g>
<!-- Node4 -->
<g id="node4" class="node">
<title>Node4</title>
<g id="a_node4"><a xlink:title=" ">
<polygon fill="white" stroke="#bfbfbf" points="106.5,-0.5 106.5,-19.5 168.5,-19.5 168.5,-0.5 106.5,-0.5"/>
<text text-anchor="middle" x="137.5" y="-7.5" font-family="Helvetica,sans-Serif" font-size="10.00">stdbool.h</text>
</a>
</g>
</g>
<!-- Node1&#45;&gt;Node4 -->
<g id="edge9" class="edge">
<title>Node1&#45;&gt;Node4</title>
<path fill="none" stroke="midnightblue" d="M240.71,-112.37C221.9,-93.89 177.51,-50.29 153.53,-26.74"/>
<polygon fill="midnightblue" stroke="midnightblue" points="155.83,-24.1 146.25,-19.59 150.93,-29.1 155.83,-24.1"/>
</g>
<!-- Node5 -->
<g id="node5" class="node">
<title>Node5</title>
<g id="a_node5"><a xlink:title=" ">
<polygon fill="white" stroke="#bfbfbf" points="187,-0.5 187,-19.5 240,-19.5 240,-0.5 187,-0.5"/>
<text text-anchor="middle" x="213.5" y="-7.5" font-family="Helvetica,sans-Serif" font-size="10.00">stdint.h</text>
</a>
</g>
</g>
<!-- Node1&#45;&gt;Node5 -->
<g id="edge10" class="edge">
<title>Node1&#45;&gt;Node5</title>
<path fill="none" stroke="midnightblue" d="M245.76,-112.48C241.91,-103.51 235.86,-88.92 231.5,-76 226.29,-60.55 221.42,-42.68 218.07,-29.59"/>
<polygon fill="midnightblue" stroke="midnightblue" points="221.36,-28.35 215.54,-19.5 214.57,-30.06 221.36,-28.35"/>
</g>
<!-- Node6 -->
<g id="node6" class="node">
<title>Node6</title>
<g id="a_node6"><a xlink:title=" ">
<polygon fill="white" stroke="#bfbfbf" points="240,-56.5 240,-75.5 335,-75.5 335,-56.5 240,-56.5"/>
<text text-anchor="middle" x="287.5" y="-63.5" font-family="Helvetica,sans-Serif" font-size="10.00">hardware/gpio.h</text>
</a>
</g>
</g>
<!-- Node1&#45;&gt;Node6 -->
<g id="edge5" class="edge">
<title>Node1&#45;&gt;Node6</title>
<path fill="none" stroke="midnightblue" d="M255.77,-112.08C261.14,-104.46 269.02,-93.26 275.58,-83.94"/>
<polygon fill="midnightblue" stroke="midnightblue" points="278.45,-85.94 281.34,-75.75 272.72,-81.91 278.45,-85.94"/>
</g>
<!-- Node7 -->
<g id="node7" class="node">
<title>Node7</title>
<g id="a_node7"><a xlink:title=" ">
<polygon fill="white" stroke="#bfbfbf" points="353.5,-56.5 353.5,-75.5 429.5,-75.5 429.5,-56.5 353.5,-56.5"/>
<text text-anchor="middle" x="391.5" y="-63.5" font-family="Helvetica,sans-Serif" font-size="10.00">pico/stdlib.h</text>
</a>
</g>
</g>
<!-- Node1&#45;&gt;Node7 -->
<g id="edge7" class="edge">
<title>Node1&#45;&gt;Node7</title>
<path fill="none" stroke="midnightblue" d="M272,-112.44C295.58,-103.48 332.82,-89.31 359.46,-79.18"/>
<polygon fill="midnightblue" stroke="midnightblue" points="361,-82.34 369.1,-75.52 358.51,-75.8 361,-82.34"/>
</g>
<!-- Node8 -->
<g id="node8" class="node">
<title>Node8</title>
<g id="a_node8"><a xlink:title=" ">
<polygon fill="white" stroke="#bfbfbf" points="447.5,-56.5 447.5,-75.5 503.5,-75.5 503.5,-56.5 447.5,-56.5"/>
<text text-anchor="middle" x="475.5" y="-63.5" font-family="Helvetica,sans-Serif" font-size="10.00">stdarg.h</text>
</a>
</g>
</g>
<!-- Node1&#45;&gt;Node8 -->
<g id="edge8" class="edge">
<title>Node1&#45;&gt;Node8</title>
<path fill="none" stroke="midnightblue" d="M284,-112.84C319.9,-104.33 378.02,-90.54 437.31,-76.28"/>
<polygon fill="midnightblue" stroke="midnightblue" points="438.32,-79.64 447.22,-73.89 436.68,-72.83 438.32,-79.64"/>
</g>
<!-- Node9 -->
<g id="node9" class="node">
<title>Node9</title>
<g id="a_node9"><a xlink:title=" ">
<polygon fill="white" stroke="#bfbfbf" points="521.5,-56.5 521.5,-75.5 571.5,-75.5 571.5,-56.5 521.5,-56.5"/>
<text text-anchor="middle" x="546.5" y="-63.5" font-family="Helvetica,sans-Serif" font-size="10.00">stdio.h</text>
</a>
</g>
</g>
<!-- Node1&#45;&gt;Node9 -->
<g id="edge11" class="edge">
<title>Node1&#45;&gt;Node9</title>
<path fill="none" stroke="midnightblue" d="M284.15,-116.08C332.81,-108.95 424.33,-94.74 511.52,-76.06"/>
<polygon fill="midnightblue" stroke="midnightblue" points="512.28,-79.47 521.31,-73.94 510.8,-72.63 512.28,-79.47"/>
</g>
<!-- Node2&#45;&gt;Node3 -->
<g id="edge2" class="edge">
<title>Node2&#45;&gt;Node3</title>
<path fill="none" stroke="midnightblue" d="M99.9,-56.32C90.04,-48.26 75.15,-36.08 63.28,-26.37"/>
<polygon fill="midnightblue" stroke="midnightblue" points="65.25,-23.46 55.3,-19.83 60.82,-28.88 65.25,-23.46"/>
</g>
<!-- Node2&#45;&gt;Node4 -->
<g id="edge3" class="edge">
<title>Node2&#45;&gt;Node4</title>
<path fill="none" stroke="midnightblue" d="M114.96,-56.08C118.65,-48.69 124.02,-37.95 128.59,-28.81"/>
<polygon fill="midnightblue" stroke="midnightblue" points="131.78,-30.26 133.12,-19.75 125.52,-27.13 131.78,-30.26"/>
</g>
<!-- Node2&#45;&gt;Node5 -->
<g id="edge4" class="edge">
<title>Node2&#45;&gt;Node5</title>
<path fill="none" stroke="midnightblue" d="M127.05,-56.32C143.49,-47.7 168.93,-34.36 187.97,-24.39"/>
<polygon fill="midnightblue" stroke="midnightblue" points="189.76,-27.4 196.99,-19.65 186.51,-21.2 189.76,-27.4"/>
</g>
</g>
</svg>
